<?xml version="1.0" encoding="UTF-8"?>
<!DOCTYPE svg PUBLIC "-//W3C//DTD SVG 1.1//EN" "http://www.w3.org/Graphics/SVG/1.1/DTD/svg11.dtd">
<!-- Creator: CorelDRAW 2020 (64 Bit) -->
<svg xmlns="http://www.w3.org/2000/svg" xml:space="preserve" width="125.507mm" height="125.507mm" version="1.1" style="shape-rendering:geometricPrecision; text-rendering:geometricPrecision; image-rendering:optimizeQuality; fill-rule:evenodd; clip-rule:evenodd"
viewBox="0 0 12536.44 12536.44"
 xmlns:xlink="http://www.w3.org/1999/xlink"
 xmlns:xodm="http://www.corel.com/coreldraw/odm/2003">
 <defs>
  <style type="text/css">
   <![CDATA[
    .str0 {stroke:#373435;stroke-width:19.98;stroke-miterlimit:22.9256}
    .fil2 {fill:#FEFEFE}
    .fil0 {fill:#0074BE}
    .fil1 {fill:#0089CA}
   ]]>
  </style>
 </defs>
 <g id="Camada_x0020_1">
  <metadata id="CorelCorpID_0Corel-Layer"/>
  <g id="_1712685533072">
   <rect class="fil0 str0" x="9.99" y="9.99" width="12516.46" height="12516.46"/>
   <path class="fil1" d="M6253.61 3732.73c774.87,1.57 1549.73,3.15 2324.6,4.71 -138.01,1647.37 -276.04,3294.74 -414.05,4942.1 -636.85,173.57 -1273.7,347.16 -1910.55,520.73 0,-1822.52 0,-3645.03 0,-5467.55z"/>
   <path class="fil2" d="M4565.92 5087.19c-27.68,-221.64 -55.35,-443.29 -83.03,-664.92 1217.51,-2.85 2435,-5.69 3652.51,-8.54 -2.19,218.05 -4.38,436.1 -6.56,654.16 -547.75,227.85 -1095.49,455.71 -1643.23,683.56 500.28,3.88 1000.57,7.74 1500.85,11.62 -55.93,725.71 -111.86,1451.4 -167.79,2177.11 -521.69,149.24 -1043.37,298.47 -1565.06,447.71 -485.24,-130.73 -970.48,-261.45 -1455.72,-392.18 -29.52,-370.22 -59.03,-740.44 -88.55,-1110.66 237.42,-2.87 474.84,-5.72 712.26,-8.59 19.56,181.26 39.11,362.53 58.66,543.79 257.79,61.87 515.56,123.74 773.35,185.61 299.52,-57.96 599.04,-115.94 898.56,-173.9 16.33,-311.42 32.67,-622.83 49,-934.25 -841.07,-7.49 -1682.16,-14.98 -2523.23,-22.47 -25.11,-214.96 -50.21,-429.91 -75.32,-644.87 553.26,-240.95 1106.52,-481.89 1659.78,-722.84 -565.5,-6.77 -1130.99,-13.55 -1696.49,-20.33z"/>
  </g>
 </g>
</svg>
