<?xml version="1.0" encoding="UTF-8"?>
<!DOCTYPE svg PUBLIC "-//W3C//DTD SVG 1.1//EN" "http://www.w3.org/Graphics/SVG/1.1/DTD/svg11.dtd">
<!-- Creator: CorelDRAW 2020 (64 Bit) -->
<svg xmlns="http://www.w3.org/2000/svg" xml:space="preserve" width="125.507mm" height="125.507mm" version="1.1" style="shape-rendering:geometricPrecision; text-rendering:geometricPrecision; image-rendering:optimizeQuality; fill-rule:evenodd; clip-rule:evenodd"
viewBox="0 0 12536.44 12536.44"
 xmlns:xlink="http://www.w3.org/1999/xlink"
 xmlns:xodm="http://www.corel.com/coreldraw/odm/2003">
 <defs>
  <style type="text/css">
   <![CDATA[
    .str0 {stroke:#373435;stroke-width:19.98;stroke-miterlimit:22.9256}
    .fil1 {fill:#FEFEFE}
    .fil0 {fill:#F05133}
   ]]>
  </style>
 </defs>
 <g id="Camada_x0020_1">
  <metadata id="CorelCorpID_0Corel-Layer"/>
  <rect class="fil0 str0" x="9.99" y="9.99" width="12516.46" height="12516.46"/>
  <path class="fil1" d="M6528.27 3476.39l2505.8 2526.15c144.95,146.12 144.94,385.22 -0.01,531.35l-2505.79 2526.13c-144.95,146.13 -382.12,146.13 -527.06,0.01l-2505.81 -2526.15c-144.94,-146.11 -144.94,-385.21 0.01,-531.34l1719.61 -1733.56 660.06 659.46c-22.01,52.41 -34.19,109.97 -34.19,170.37 0,183.86 112.73,341.38 272.84,407.25l9.45 1577.05c-164.13,63.96 -280.44,223.54 -280.44,410.29 0,243.12 197.09,440.21 440.21,440.21 243.11,0 440.2,-197.09 440.2,-440.21 0,-177.68 -105.29,-330.75 -256.86,-400.3l0.43 -39.3c3.49,-341.01 3.47,-905.43 2.46,-1531.82l605.98 605.43c-22.65,53.04 -35.2,111.42 -35.2,172.74 0,243.12 197.09,440.21 440.21,440.21 243.11,0 440.2,-197.09 440.2,-440.21 0,-243.11 -197.09,-440.2 -440.2,-440.2 -58.8,0 -114.91,11.56 -166.18,32.48 -53.84,-58.1 -131.24,-139.93 -245.14,-257.56 -99.76,-103.02 -227.53,-233.53 -374.84,-383.2 17.64,-47.63 27.3,-99.12 27.3,-152.88 0,-243.11 -197.09,-440.2 -440.2,-440.2 -51.88,0 -101.64,9 -147.86,25.48 -212.32,-214.36 -438.52,-442.33 -664.9,-670.48l532.87 -537.2c144.95,-146.13 382.13,-146.13 527.07,-0.02z"/>
 </g>
</svg>
