<?xml version="1.0" encoding="UTF-8"?>
<!DOCTYPE svg PUBLIC "-//W3C//DTD SVG 1.1//EN" "http://www.w3.org/Graphics/SVG/1.1/DTD/svg11.dtd">
<!-- Creator: CorelDRAW 2020 (64 Bit) -->
<svg xmlns="http://www.w3.org/2000/svg" xml:space="preserve" width="125.507mm" height="125.507mm" version="1.1" style="shape-rendering:geometricPrecision; text-rendering:geometricPrecision; image-rendering:optimizeQuality; fill-rule:evenodd; clip-rule:evenodd"
viewBox="0 0 13879.65 13879.65"
 xmlns:xlink="http://www.w3.org/1999/xlink"
 xmlns:xodm="http://www.corel.com/coreldraw/odm/2003">
 <defs>
  <style type="text/css">
   <![CDATA[
    .str0 {stroke:#373435;stroke-width:22.12;stroke-miterlimit:22.9256}
    .fil2 {fill:#FEFEFE}
    .fil0 {fill:#E44D26}
    .fil1 {fill:#F16529}
   ]]>
  </style>
 </defs>
 <g id="Camada_x0020_1">
  <metadata id="CorelCorpID_0Corel-Layer"/>
  <g id="_1676743718368">
   <rect class="fil0 str0" x="11.06" y="11.06" width="13857.53" height="13857.53"/>
   <path class="fil1" d="M7048.46 4245.24c859.21,3.23 1718.41,6.46 2577.62,9.69 -152.8,1823.87 -305.61,3647.75 -458.41,5471.62 -706.39,194.04 -1412.78,388.08 -2119.17,582.12 -0.01,-2021.14 -0.02,-4042.29 -0.03,-6063.43z"/>
   <path class="fil2" d="M5026.94 5051.09c72.17,788.07 144.34,1576.13 216.51,2364.2 926.57,0.97 1853.15,1.96 2779.72,2.93 -29.26,346.25 -58.51,692.51 -87.77,1038.76 -295.64,78.96 -591.27,157.92 -886.91,236.88 -304.14,-75.81 -608.29,-151.62 -912.44,-227.43 -15.66,-211.88 -31.31,-423.74 -46.97,-635.62 -264.32,-0.97 -528.63,-1.95 -792.94,-2.92 37.06,407.69 74.13,815.38 111.19,1223.07 547.06,149.84 1094.11,299.66 1641.17,449.5 123.48,-35.72 246.96,-71.43 522.79,-144.4 275.83,-72.97 704,-183.18 1132.18,-293.39 64.37,-809.53 128.74,-1619.06 193.11,-2428.6 -979.25,-0.97 -1958.49,-1.95 -2937.75,-2.92 -17.57,-268.22 -35.13,-536.44 -52.71,-804.67 1017.77,4.87 2035.53,9.72 3053.3,14.59 17.55,-250.66 35.11,-501.32 52.66,-751.98 -1328.38,-12.67 -2656.75,-25.34 -3985.13,-38.01z"/>
  </g>
 </g>
</svg>
