<?xml version="1.0" encoding="UTF-8"?>
<!DOCTYPE svg PUBLIC "-//W3C//DTD SVG 1.1//EN" "http://www.w3.org/Graphics/SVG/1.1/DTD/svg11.dtd">
<!-- Creator: CorelDRAW 2020 (64 Bit) -->
<svg xmlns="http://www.w3.org/2000/svg" xml:space="preserve" width="125.507mm" height="125.507mm" version="1.1" style="shape-rendering:geometricPrecision; text-rendering:geometricPrecision; image-rendering:optimizeQuality; fill-rule:evenodd; clip-rule:evenodd"
viewBox="0 0 13879.65 13879.65"
 xmlns:xlink="http://www.w3.org/1999/xlink"
 xmlns:xodm="http://www.corel.com/coreldraw/odm/2003">
 <defs>
  <style type="text/css">
   <![CDATA[
    .str0 {stroke:#373435;stroke-width:22.12;stroke-miterlimit:22.9256}
    .fil2 {fill:#FEFEFE}
    .fil0 {fill:#E4A126}
    .fil1 {fill:#F0BE25}
   ]]>
  </style>
 </defs>
 <g id="Camada_x0020_1">
  <metadata id="CorelCorpID_0Corel-Layer"/>
  <g id="_1712712401488">
   <rect class="fil0 str0" x="11.06" y="11.06" width="13857.53" height="13857.53"/>
   <path class="fil1" d="M6924.28 4128.21c857.68,3.23 1715.37,6.45 2573.05,9.68 -152.8,1823.87 -305.61,3647.75 -458.41,5471.62 -704.88,192.42 -1409.78,384.86 -2114.66,577.28 0.01,-2019.53 0.01,-4039.06 0.02,-6058.59z"/>
   <path class="fil2" d="M5376.14 4451.51c-35.76,352.75 -71.52,705.49 -106.46,1094 -34.96,388.51 -69.1,812.77 -91.86,1112.69 -22.76,299.92 -34.13,475.49 -45.51,651.05 910.31,8.13 1820.62,16.25 2730.94,24.37 -22.48,322.24 -44.98,644.49 -67.46,966.73 -290.51,81.48 -581.02,162.96 -871.53,244.45 -301.93,-74.19 -603.87,-148.38 -905.8,-222.57 -14.17,-205.99 -28.32,-411.99 -42.49,-617.98 -287.72,0 -575.45,0 -863.17,0 43.89,419.4 87.77,838.79 131.67,1258.19 559.92,148.84 1119.86,297.67 1679.78,446.51 555.21,-150.47 1110.41,-300.92 1665.62,-451.39 69.9,-817.66 139.8,-1635.31 209.7,-2452.97 -918.44,1.63 -1836.88,3.25 -2755.32,4.88 33.43,-409.71 66.86,-819.41 100.29,-1229.12 578.7,9.75 1157.41,19.5 1736.11,29.25 23.46,274.79 46.91,549.57 70.37,824.36 274.72,4.88 549.44,9.75 824.16,14.63 -42.27,-567.32 -84.52,-1134.64 -126.79,-1701.96 -1090.75,1.63 -2181.51,3.25 -3272.26,4.88z"/>
  </g>
 </g>
</svg>
