<?xml version="1.0" encoding="UTF-8"?>
<!DOCTYPE svg PUBLIC "-//W3C//DTD SVG 1.1//EN" "http://www.w3.org/Graphics/SVG/1.1/DTD/svg11.dtd">
<!-- Creator: CorelDRAW 2020 (64 Bit) -->
<svg xmlns="http://www.w3.org/2000/svg" xml:space="preserve" width="125.507mm" height="125.507mm" version="1.1" style="shape-rendering:geometricPrecision; text-rendering:geometricPrecision; image-rendering:optimizeQuality; fill-rule:evenodd; clip-rule:evenodd"
viewBox="0 0 12536.44 12536.44"
 xmlns:xlink="http://www.w3.org/1999/xlink"
 xmlns:xodm="http://www.corel.com/coreldraw/odm/2003">
 <defs>
  <style type="text/css">
   <![CDATA[
    .str0 {stroke:#373435;stroke-width:19.98;stroke-miterlimit:22.9256}
    .fil0 {fill:#222222}
    .fil1 {fill:#61DAFB}
   ]]>
  </style>
 </defs>
 <g id="Camada_x0020_1">
  <metadata id="CorelCorpID_0Corel-Layer"/>
  <g id="_2486129218304">
   <rect class="fil0 str0" x="9.99" y="9.99" width="12516.46" height="12516.46"/>
   <g>
    <ellipse class="fil1" cx="6269.05" cy="6133.2" rx="671.26" ry="676.84"/>
    <path class="fil1" d="M7599.04 6903.05c-70.61,122.09 -142.99,241.09 -216.74,356.71 229.49,-28.82 448.63,-66.13 654,-110.82 -63.42,-200.35 -140.39,-409.02 -230.55,-622.68 -65.03,125.15 -133.89,250.88 -206.71,376.79zm-462.27 722.04c-204.73,289.07 -417.06,551.75 -630.67,782.64 601.46,590.81 1165.73,874.46 1477.67,675.79 309.01,-196.8 347.58,-815.86 144.66,-1612.73 -305.42,69.54 -638.38,121.9 -991.65,154.29zm-871.35 -3025.62c143.08,0.09 284.24,3.41 423.16,9.64 -137.79,-179.81 -277.6,-346.87 -416.88,-499.17 -138.7,151.77 -277.94,318.44 -415.21,498.06 134.23,-5.66 270.61,-8.61 408.93,-8.53zm867.43 40.26c351.08,33 683.22,85.54 988.55,155.04 207.81,-810.14 173.78,-1436.91 -140.08,-1616.39 -314.37,-179.78 -875.3,102.03 -1473.79,687.26 211.73,228.2 422.14,487.86 625.32,774.09zm1314.76 238.59c951.96,272.95 1572.32,724.05 1569.97,1252.98 -2.36,530.08 -616.44,984.37 -1569.02,1257.52 241.04,959.57 162.02,1721.8 -296.4,1985 -460.25,264.23 -1162.44,-40.05 -1877.57,-728.68 -715.36,693.5 -1419.99,1008.55 -1878.64,740.93 -459.02,-267.86 -544.4,-1030.14 -302.2,-1995.17 -969.28,-271.16 -1595.75,-723.59 -1580.47,-1259.6 15.12,-530.85 630.75,-982.04 1575.76,-1254.45 -250.29,-972.21 -172.75,-1738.98 297.78,-1994.3 468.54,-254.23 1171.22,55.09 1883.79,741.25 718.67,-701.91 1422.59,-1016.97 1878.56,-736.01 451.9,278.45 534.77,1036.63 298.44,1990.55zm-1744.95 2775.86c-143.29,6.21 -289.12,9.31 -437.24,8.95 -141.1,-0.34 -280.25,-3.73 -417.23,-9.81 141.22,185.98 284.69,358.47 427.6,515.15 142.79,-156.1 285.99,-328.22 426.86,-514.3zm-1293.64 -30.51c-353.22,-32.37 -686.95,-84.02 -993.65,-152.33 -214.54,818.85 -180.05,1452.14 148.43,1624.11 326.18,170.77 886.14,-107.66 1479.33,-686.34 -214.49,-230.72 -427.91,-494.18 -634.11,-785.45zm-992.1 -2831.1c308.3,-70.28 644.18,-123.05 1000.1,-155.5 201.7,-284.44 410.02,-543.18 619.25,-771.11 -602.61,-590.07 -1167.41,-876.85 -1481.06,-693.11 -312.42,183 -347.52,809.5 -138.29,1619.73zm1848.51 142.5c231.5,-0.81 457.92,7.27 676.93,23.32 124.4,180.5 245.7,370.89 361.88,569.57 117.75,201.36 225.08,402.79 321.65,601.75 -95.53,200.38 -201.51,403.1 -317.47,605.5 -113.56,198.2 -232.15,387.77 -353.85,567.29 -223.33,16.7 -453.93,25.36 -689.15,25.03 -228.98,-0.33 -453.14,-9.24 -670.22,-25.72 -124.06,-181.81 -244.9,-373.53 -360.47,-573.42 -114.84,-198.61 -219.79,-397.37 -314.58,-593.79 95.56,-197.41 201.2,-396.93 316.54,-595.97 116.83,-201.61 238.83,-394.46 363.95,-577.01 215.61,-16.57 437.95,-25.75 664.78,-26.55zm1111.23 66.59c229.59,29.07 448.39,66.9 653.25,112.33 -63.2,200.31 -139.47,408.87 -228.34,622.27 -65.21,-125.23 -134.18,-250.94 -207.02,-376.7 -71.05,-122.64 -143.78,-242.02 -217.88,-357.9zm982.4 195.06c791.43,224.34 1307.73,568.45 1322.92,934.58 15.3,369.09 -511.92,714.51 -1323.19,938.34 -92.84,-299.36 -213.82,-613.51 -361.47,-934.36 148.41,-322.71 269.41,-638.18 361.74,-938.56zm-3195.57 2061.31c-229.2,-29.27 -447.86,-67.08 -652.77,-112.18 64.25,-199.2 141.45,-406.41 231.12,-618.24 63.97,122.64 131.45,245.82 202.6,369.16 71.44,123.86 144.57,244.36 219.05,361.26zm-977.85 -192.99c-808.66,-225.53 -1358.76,-571.66 -1336.76,-933.74 22,-362.08 537.88,-705.51 1333.26,-930.75 94.58,298.82 217,612.61 365.77,933.58 -148.28,320.25 -269.39,633.04 -362.27,930.91zm325.63 -1946.28c206.46,-45.42 426.74,-83.54 657.46,-113.08 -75.68,118.26 -150.01,240.06 -222.64,365.11 -71.81,123.64 -139.75,247.03 -204.02,369.84 -89.85,-213.3 -166.93,-421.7 -230.81,-621.86z"/>
   </g>
  </g>
 </g>
</svg>
