<?xml version="1.0" standalone="no"?>
<!DOCTYPE svg PUBLIC "-//W3C//DTD SVG 20010904//EN"
 "http://www.w3.org/TR/2001/REC-SVG-20010904/DTD/svg10.dtd">
<svg version="1.0" xmlns="http://www.w3.org/2000/svg"
 width="500.000000pt" height="500.000000pt" viewBox="0 0 500.000000 500.000000"
 preserveAspectRatio="xMidYMid meet">

<g transform="translate(0.000000,500.000000) scale(0.100000,-0.100000)"
fill="#F25D07" stroke="none">
<path d="M2001 3606 l-402 -1125 1 -360 c1 -458 14 -572 91 -752 148 -346 463
-529 914 -529 415 0 721 159 877 457 108 206 127 329 129 831 l1 373 -399
1114 -398 1115 -206 0 -205 0 -403 -1124z m788 201 c94 -280 171 -513 171
-518 0 -5 -143 -9 -350 -9 -192 0 -350 3 -350 7 0 22 346 1041 351 1035 4 -4
83 -236 178 -515z m365 -1084 c43 -131 81 -244 84 -250 3 -10 -126 -13 -628
-13 -502 0 -631 3 -628 13 3 6 41 119 84 250 l79 237 465 0 465 0 79 -237z
m166 -745 c0 -320 -54 -494 -194 -633 -69 -68 -175 -125 -283 -152 -98 -25
-402 -25 -493 0 -219 59 -360 191 -419 392 -29 98 -41 215 -41 392 l0 153 715
0 715 0 0 -152z"/>
<path d="M2410 1690 l0 -200 200 0 200 0 0 200 0 200 -200 0 -200 0 0 -200z" fill="#000"/>
</g>
</svg>
