<?xml version="1.0" standalone="no"?>
<!DOCTYPE svg PUBLIC "-//W3C//DTD SVG 20010904//EN"
 "http://www.w3.org/TR/2001/REC-SVG-20010904/DTD/svg10.dtd">
<svg version="1.0" xmlns="http://www.w3.org/2000/svg"
 width="1000.000000pt" height="100.000000pt" viewBox="0 0 1000.000000 100.000000"
 preserveAspectRatio="xMidYMid meet">

<g transform="translate(0.000000,100.000000) scale(0.100000,-0.100000)"
fill="#fff" stroke="none">
<path d="M6001 909 c-98 -19 -192 -93 -241 -189 -64 -125 -64 -337 0 -472 70
-150 236 -226 401 -184 66 17 159 70 159 90 -1 6 -16 29 -34 50 l-34 39 -48
-29 c-42 -24 -60 -29 -120 -29 -63 0 -75 3 -108 29 -23 17 -49 51 -65 85 -24
51 -26 67 -26 181 0 74 5 143 13 168 15 48 61 106 103 128 45 23 128 18 185
-11 l49 -25 38 39 c20 22 37 45 37 50 0 18 -93 65 -154 78 -69 14 -92 15 -155
2z" />
<path d="M466 823 c-14 -43 -68 -217 -121 -388 -53 -171 -100 -322 -105 -337
l-9 -28 83 0 83 0 24 93 24 92 139 0 140 0 25 -92 24 -93 85 0 c63 0 83 3 80
13 -3 6 -61 193 -129 414 l-124 403 -97 0 -96 0 -26 -77z m168 -233 c26 -96
49 -183 52 -192 5 -16 -4 -18 -100 -18 -58 0 -106 2 -106 4 0 3 23 89 50 191
28 102 50 189 50 192 0 21 13 -22 54 -177z" />
<path d="M1030 485 l0 -415 77 0 76 0 -7 273 c-3 149 -9 297 -12 327 -5 48 12
14 134 -270 l139 -325 101 -3 102 -3 0 416 0 415 -70 0 -70 0 0 -242 c0 -134
5 -281 10 -327 5 -47 8 -86 7 -87 -1 -1 -65 144 -143 324 l-140 327 -102 3
-102 3 0 -416z" />
<path d="M1840 486 l0 -416 140 0 c158 0 221 11 301 51 124 62 180 172 181
355 1 188 -41 291 -142 352 -89 53 -138 64 -317 69 l-163 6 0 -417z m315 283
c51 -14 107 -72 124 -130 19 -64 25 -185 12 -253 -15 -81 -40 -125 -89 -160
-35 -25 -53 -30 -122 -34 l-80 -5 0 297 0 296 58 0 c31 0 75 -5 97 -11z" />
<path d="M2618 894 c-5 -4 -8 -191 -8 -416 l0 -408 80 0 80 0 0 165 0 165 53
0 52 0 90 -165 90 -165 92 0 92 0 -104 174 c-58 96 -105 178 -105 182 0 5 21
20 46 33 169 90 149 341 -34 412 -49 19 -81 23 -237 27 -99 2 -183 1 -187 -4z
m342 -129 c44 -23 60 -53 60 -115 0 -98 -42 -130 -170 -130 l-80 0 0 130 0
130 80 0 c52 0 91 -5 110 -15z" />
<path d="M3350 485 l0 -415 240 0 240 0 0 60 0 60 -160 0 -160 0 0 120 0 120
130 0 130 0 0 60 0 60 -130 0 -130 0 0 115 0 115 150 0 149 0 6 38 c3 20 8 47
11 60 l4 22 -240 0 -240 0 0 -415z" />
<path d="M3892 887 c2 -6 60 -123 131 -259 l127 -247 0 -156 0 -155 80 0 80 0
0 157 0 156 130 253 c72 139 130 255 130 259 0 3 -37 5 -82 3 l-82 -3 -85
-188 c-47 -103 -88 -184 -92 -180 -4 5 -44 90 -90 191 l-82 182 -84 0 c-63 0
-84 -3 -81 -13z" />
<path d="M4670 486 l0 -416 80 0 80 0 0 165 0 165 53 0 52 -1 90 -164 89 -165
89 0 c67 0 88 3 84 13 -2 6 -50 87 -105 179 l-101 168 37 19 c104 53 147 146
122 267 -10 45 -21 65 -55 100 -64 64 -113 76 -332 81 l-183 5 0 -416z m350
276 c42 -21 60 -53 60 -110 0 -96 -46 -132 -170 -132 l-80 0 0 130 0 130 78 0
c53 0 88 -5 112 -18z" />
<path d="M5407 893 c-4 -3 -7 -190 -7 -415 l0 -408 80 0 80 0 0 415 0 415 -73
0 c-41 0 -77 -3 -80 -7z" />
<path d="M6440 485 l0 -415 80 0 80 0 0 223 0 222 148 -222 147 -222 93 -1
c72 0 91 3 86 13 -4 6 -70 103 -146 214 -76 112 -141 209 -144 217 -3 9 50 88
136 200 l141 186 -85 0 -86 0 -142 -192 -143 -193 -5 190 -5 190 -77 3 -78 3
0 -416z" />
<path d="M7780 487 l0 -417 118 0 c64 0 146 5 182 11 132 21 236 92 279 189
45 104 50 277 12 401 -24 74 -53 114 -110 151 -78 49 -156 67 -327 74 l-154 7
0 -416z m340 271 c50 -25 84 -70 102 -132 15 -52 15 -228 0 -282 -30 -106 -99
-154 -219 -154 l-73 0 0 295 0 295 73 0 c56 0 83 -5 117 -22z" fill="#F25D07"/>
<path d="M8550 485 l0 -415 240 0 240 0 0 60 0 60 -165 0 -166 0 3 122 3 123
133 3 132 3 0 54 0 55 -135 0 -135 0 0 115 0 115 155 0 154 0 6 38 c3 20 8 47
11 60 l4 22 -240 0 -240 0 0 -415z" fill="#F25D07"/>
<path d="M9095 873 c3 -16 59 -201 124 -413 l117 -385 91 -3 91 -3 11 33 c30
95 231 780 231 788 0 6 -32 10 -75 10 -73 0 -75 -1 -81 -27 -84 -336 -173
-665 -177 -653 -7 17 -177 668 -177 675 0 3 -36 5 -81 5 l-81 0 7 -27z" fill="#F25D07"/>
<path d="M7290 200 l0 -120 120 0 120 0 0 120 0 120 -120 0 -120 0 0 -120z" fill="#F25D07"/>
</g>
</svg>
