<?xml version="1.0" standalone="no"?>
<!DOCTYPE svg PUBLIC "-//W3C//DTD SVG 20010904//EN"
 "http://www.w3.org/TR/2001/REC-SVG-20010904/DTD/svg10.dtd">
<svg version="1.0" xmlns="http://www.w3.org/2000/svg"
 width="512.000000pt" height="512.000000pt" viewBox="0 0 512.000000 512.000000"
 preserveAspectRatio="xMidYMid meet">

<g transform="translate(0.000000,512.000000) scale(0.100000,-0.100000)"
fill="#F25D07" stroke="none">
<path d="M2245 5113 c-230 -13 -393 -27 -525 -44 -757 -97 -1254 -301 -1378
-566 l-27 -58 0 -1885 0 -1885 26 -55 c47 -101 179 -220 327 -294 761 -384
2532 -437 3521 -106 311 103 516 243 590 400 l26 55 0 1885 0 1885 -26 55
c-152 324 -843 553 -1843 610 -160 9 -563 11 -691 3z m680 -303 c570 -32 1104
-139 1380 -278 118 -59 205 -134 205 -176 0 -9 -20 -36 -45 -60 -173 -169
-706 -311 -1380 -368 -200 -16 -866 -16 -1055 0 -547 49 -966 142 -1240 275
-96 47 -180 120 -180 157 0 41 87 113 202 169 443 214 1284 326 2113 281z
m-2101 -950 c264 -105 720 -192 1211 -232 204 -16 860 -16 1060 0 567 47 1022
145 1313 282 l102 49 0 -411 0 -412 -48 -45 c-152 -146 -632 -284 -1202 -346
-344 -37 -911 -44 -1245 -15 -646 56 -1192 201 -1357 360 l-48 46 0 111 0 112
103 -49 c275 -129 745 -234 1227 -273 l155 -12 6 40 c3 22 9 88 12 147 8 126
30 111 -178 128 -574 47 -1118 198 -1282 355 l-43 42 0 111 0 112 70 -35 c38
-19 103 -48 144 -65z m0 -1200 c264 -105 719 -192 1211 -232 202 -16 860 -16
1050 0 608 53 1033 144 1322 281 l103 50 0 -411 0 -412 -48 -45 c-152 -146
-632 -284 -1202 -346 -344 -37 -911 -44 -1245 -15 -646 56 -1192 201 -1357
360 l-48 46 0 111 0 112 103 -49 c275 -129 745 -234 1227 -273 l155 -12 6 40
c3 22 9 88 12 147 8 126 30 111 -178 128 -574 47 -1118 198 -1282 355 l-43 42
0 111 0 112 70 -35 c38 -19 103 -48 144 -65z m0 -1200 c265 -105 717 -192
1211 -232 202 -16 860 -16 1050 0 608 53 1033 144 1322 281 l103 50 0 -406 c0
-465 7 -431 -98 -502 -119 -80 -274 -142 -510 -202 -654 -167 -1584 -196
-2332 -73 -423 69 -788 195 -910 313 l-50 47 0 111 0 112 103 -49 c275 -129
745 -234 1227 -273 l155 -12 6 40 c3 22 9 88 12 147 8 126 30 111 -178 128
-334 27 -679 92 -935 177 -128 42 -290 126 -342 178 l-48 47 0 109 0 109 70
-35 c38 -19 103 -48 144 -65z"/>
<path d="M2410 3160 l0 -150 150 0 150 0 0 150 0 150 -150 0 -150 0 0 -150z"/>
<path d="M2410 1960 l0 -150 150 0 150 0 0 150 0 150 -150 0 -150 0 0 -150z"/>
<path d="M2410 760 l0 -150 150 0 150 0 0 150 0 150 -150 0 -150 0 0 -150z"/>
</g>
</svg>
