<?xml version="1.0" standalone="no"?>
<!DOCTYPE svg PUBLIC "-//W3C//DTD SVG 20010904//EN"
 "http://www.w3.org/TR/2001/REC-SVG-20010904/DTD/svg10.dtd">
<svg version="1.0" xmlns="http://www.w3.org/2000/svg"
 width="512.000000pt" height="512.000000pt" viewBox="0 0 512.000000 512.000000"
 preserveAspectRatio="xMidYMid meet">

<g transform="translate(0.000000,512.000000) scale(0.100000,-0.100000)"
fill="#ed3238" stroke="none">
<path d="M4485 5114 c-115 -10 -339 -48 -460 -79 -392 -100 -769 -298 -1075
-564 -41 -36 -235 -224 -430 -418 l-355 -352 -469 -61 c-265 -34 -480 -67
-495 -75 -14 -7 -232 -220 -483 -472 -457 -458 -458 -459 -458 -500 0 -29 7
-50 23 -68 20 -24 46 -31 372 -91 l350 -66 67 -66 c37 -36 64 -69 60 -73 -4
-4 -72 -42 -151 -85 -156 -85 -181 -111 -167 -170 5 -20 175 -197 559 -582
593 -594 590 -591 654 -558 24 12 49 48 108 158 43 79 80 146 84 150 4 4 37
-23 73 -60 l67 -67 65 -350 c60 -325 67 -352 91 -372 18 -16 39 -23 68 -23 41
0 42 1 495 452 249 249 462 465 472 479 15 21 31 117 80 500 l61 474 358 360
c197 198 391 399 432 446 319 372 530 846 606 1362 18 124 24 511 10 630 -11
86 -33 113 -102 127 -53 11 -425 21 -510 14z m419 -205 c15 -14 10 -394 -8
-524 -14 -101 -48 -280 -61 -322 -9 -28 -208 39 -340 116 -103 59 -263 218
-321 316 -75 131 -146 332 -120 347 41 23 383 75 536 81 103 4 304 -5 314 -14z
m-1034 -181 c58 -250 222 -495 435 -653 125 -93 306 -177 428 -199 20 -4 37
-11 37 -16 0 -18 -94 -230 -141 -320 -107 -200 -217 -351 -397 -545 -66 -71
-494 -503 -951 -960 l-831 -830 -625 625 -625 625 947 946 c594 593 979 969
1030 1007 134 101 288 197 417 261 107 53 238 109 258 111 3 0 12 -24 18 -52z
m-2385 -1708 l-460 -459 -227 42 c-124 23 -229 45 -232 48 -3 2 161 171 364
374 l369 369 318 42 c175 23 320 42 323 43 3 1 -202 -206 -455 -459z m537
-1832 l-57 -108 -443 443 c-243 243 -441 446 -439 450 1 4 47 32 102 62 l100
54 397 -397 397 -396 -57 -108z m1404 440 l-41 -318 -370 -370 c-203 -203
-371 -367 -374 -364 -3 2 -24 107 -47 232 l-43 227 457 457 c251 252 457 456
458 455 1 -1 -17 -145 -40 -319z"/>
<path d="M3185 3860 c-223 -31 -423 -210 -480 -430 -22 -83 -22 -217 0 -300
49 -188 205 -350 395 -411 86 -28 240 -30 324 -5 319 94 501 419 410 728 -84
281 -359 458 -649 418z m208 -209 c104 -34 186 -108 236 -211 23 -49 26 -67
26 -160 0 -93 -3 -111 -26 -160 -69 -144 -203 -230 -358 -230 -83 0 -147 19
-216 65 -65 44 -105 92 -143 172 -23 50 -27 70 -27 153 0 83 4 103 27 153 15
32 41 76 58 97 37 46 125 107 183 125 63 20 174 18 240 -4z"/>
<path d="M843 1497 c-45 -46 -53 -60 -53 -91 0 -52 44 -96 96 -96 31 0 45 8
91 53 45 46 53 60 53 91 0 52 -44 96 -96 96 -31 0 -45 -8 -91 -53z"/>
<path d="M627 1279 c-25 -15 -47 -70 -40 -100 14 -59 78 -92 130 -67 61 29 73
118 22 161 -24 19 -84 22 -112 6z"/>
<path d="M1165 1281 c-33 -15 -873 -864 -884 -894 -8 -21 -7 -36 3 -62 17 -40
42 -55 93 -55 36 0 52 15 466 428 236 235 435 441 442 457 17 38 9 77 -19 104
-26 24 -73 34 -101 22z"/>
<path d="M445 1086 c-16 -8 -121 -106 -233 -218 -216 -218 -220 -224 -188
-287 8 -15 26 -32 41 -39 61 -28 67 -24 283 190 112 112 211 218 218 236 20
46 -2 97 -50 117 -41 18 -34 17 -71 1z"/>
<path d="M1222 818 c-112 -112 -210 -216 -217 -231 -27 -62 18 -127 89 -127
40 0 46 5 253 213 202 202 213 215 213 251 0 52 -44 96 -96 96 -36 0 -49 -11
-242 -202z"/>
<path d="M829 421 c-42 -42 -41 -99 2 -135 77 -65 181 4 149 99 -22 66 -101
85 -151 36z"/>
<path d="M593 187 c-62 -63 -71 -105 -29 -150 50 -54 108 -45 176 29 32 35 40
51 40 82 0 55 -38 92 -93 92 -35 0 -47 -7 -94 -53z"/>
</g>
</svg>
