<?xml version="1.0" standalone="no"?>
<!DOCTYPE svg PUBLIC "-//W3C//DTD SVG 20010904//EN"
 "http://www.w3.org/TR/2001/REC-SVG-20010904/DTD/svg10.dtd">
<svg version="1.0" xmlns="http://www.w3.org/2000/svg"
 width="512.000000pt" height="512.000000pt" viewBox="0 0 512.000000 512.000000"
 preserveAspectRatio="xMidYMid meet">

<g transform="translate(0.000000,512.000000) scale(0.100000,-0.100000)"
fill="#F25D07" stroke="none">
<path d="M3167 4865 c-265 -50 -511 -195 -669 -393 l-58 -74 -143 -2 c-163 -4
-280 -29 -411 -90 -307 -142 -530 -428 -587 -753 -6 -34 -12 -63 -13 -63 0 0
-37 7 -81 15 -435 78 -893 -157 -1094 -561 -281 -567 -1 -1244 599 -1449 78
-27 228 -55 293 -55 l37 0 0 78 0 78 -101 12 c-199 24 -371 106 -514 247 -348
343 -353 894 -10 1241 116 118 255 197 425 240 114 29 315 25 433 -9 49 -14
96 -23 105 -20 38 13 62 46 62 83 0 67 30 211 59 286 101 260 305 447 578 531
81 25 102 27 267 27 178 1 179 1 195 26 226 343 599 512 984 445 203 -35 367
-122 517 -274 113 -114 178 -218 226 -358 63 -186 69 -359 18 -562 -16 -66
-24 -120 -20 -135 7 -28 18 -35 141 -81 368 -139 603 -543 546 -935 -29 -196
-112 -360 -251 -500 -146 -145 -316 -228 -519 -252 l-101 -12 0 -80 0 -79 86
7 c733 60 1172 847 839 1506 -56 111 -98 168 -192 263 -88 88 -171 147 -288
203 -44 22 -82 40 -83 41 -2 1 4 35 13 75 25 110 30 274 11 395 -37 242 -142
450 -315 624 -145 146 -315 242 -520 296 -123 32 -344 40 -464 18z"/>
<path d="M3506 4470 c-63 -16 -153 -70 -197 -117 -22 -24 -55 -74 -72 -111
-29 -61 -32 -76 -32 -163 0 -90 2 -99 37 -171 67 -135 179 -210 339 -226 102
-11 147 -31 198 -88 87 -99 82 -224 -14 -319 -51 -52 -102 -75 -165 -75 -115
0 -240 116 -240 224 0 13 -13 16 -81 16 l-82 0 7 -52 c9 -71 55 -167 107 -222
26 -29 70 -60 117 -84 72 -35 81 -37 172 -37 91 0 100 2 172 37 91 45 147 103
191 196 29 61 32 76 32 163 0 90 -2 99 -37 171 -67 135 -179 210 -339 226
-102 11 -147 31 -198 88 -87 99 -82 224 14 319 51 52 102 75 165 75 115 0 240
-116 240 -224 0 -13 13 -16 81 -16 l82 0 -7 53 c-9 74 -66 186 -122 236 -70
65 -158 102 -252 107 -42 2 -94 -1 -116 -6z"/>
<path d="M2800 3819 c0 -303 -3 -433 -12 -463 -16 -54 -90 -128 -144 -144 -63
-18 -278 -16 -320 4 -64 31 -79 64 -82 192 l-4 112 -80 0 -80 0 4 -122 c4
-143 22 -196 90 -265 71 -72 119 -87 297 -91 135 -3 161 -1 220 18 123 39 210
126 250 248 20 59 21 85 21 497 l0 435 -80 0 -80 0 0 -421z"/>
<path d="M2080 3840 l0 -80 80 0 80 0 0 80 0 80 -80 0 -80 0 0 -80z"/>
<path d="M2400 3840 l0 -80 80 0 80 0 0 80 0 80 -80 0 -80 0 0 -80z"/>
<path d="M720 2400 l0 -560 80 0 80 0 0 240 0 240 160 0 160 0 0 -240 0 -240
80 0 80 0 0 560 0 560 -80 0 -80 0 0 -240 0 -240 -160 0 -160 0 0 240 0 240
-80 0 -80 0 0 -560z"/>
<path d="M1520 2880 l0 -80 120 0 120 0 0 -480 0 -480 80 0 80 0 0 480 0 480
120 0 120 0 0 80 0 80 -320 0 -320 0 0 -80z"/>
<path d="M2345 2935 l-25 -24 0 -536 0 -535 80 0 80 0 1 298 0 297 45 -120
c47 -126 68 -155 114 -155 46 0 67 29 114 155 l45 120 0 -297 1 -298 80 0 80
0 0 535 0 536 -25 24 c-27 28 -70 33 -101 11 -13 -10 -49 -92 -104 -240 -47
-124 -87 -226 -90 -226 -3 0 -43 102 -90 226 -55 148 -91 230 -104 240 -31 22
-74 17 -101 -11z"/>
<path d="M3122 2482 l3 -479 30 -49 c19 -30 49 -60 79 -79 l49 -30 199 -3 198
-4 0 81 0 81 -175 0 c-173 0 -176 0 -200 25 l-25 24 0 456 0 455 -80 0 -81 0
3 -478z"/>
<path d="M3440 2480 l0 -80 80 0 80 0 0 80 0 80 -80 0 -80 0 0 -80z"/>
<path d="M3760 2480 l0 -80 80 0 80 0 0 80 0 80 -80 0 -80 0 0 -80z"/>
<path d="M1586 1670 c-63 -16 -153 -70 -197 -117 -22 -24 -55 -74 -72 -111
l-32 -67 0 -415 0 -415 32 -67 c44 -93 100 -151 191 -196 72 -35 81 -37 172
-37 91 0 100 2 172 37 47 24 91 55 117 84 52 55 98 151 107 221 l7 53 -82 0
c-68 0 -81 -3 -81 -16 0 -108 -125 -224 -240 -224 -92 0 -202 80 -228 166 -17
58 -17 730 0 788 26 86 136 166 228 166 115 0 240 -116 240 -224 0 -13 13 -16
81 -16 l82 0 -7 53 c-9 74 -66 186 -122 236 -70 65 -158 102 -252 107 -42 2
-94 -1 -116 -6z"/>
<path d="M2546 1670 c-63 -16 -153 -70 -197 -117 -22 -24 -55 -74 -72 -111
-29 -61 -32 -76 -32 -163 0 -90 2 -99 37 -171 67 -135 179 -210 339 -226 102
-11 147 -31 198 -88 87 -99 82 -224 -14 -319 -70 -71 -145 -91 -239 -63 -78
23 -166 135 -166 212 0 13 -13 16 -81 16 l-82 0 7 -52 c9 -71 55 -167 107
-222 26 -29 70 -60 117 -84 72 -35 81 -37 172 -37 91 0 100 2 172 37 91 45
147 103 191 196 29 61 32 76 32 163 0 90 -2 99 -37 171 -67 135 -179 210 -339
226 -102 11 -147 31 -198 88 -87 99 -82 224 14 319 51 52 102 75 165 75 115 0
240 -116 240 -224 0 -13 13 -16 81 -16 l82 0 -7 53 c-9 74 -66 186 -122 236
-70 65 -158 102 -252 107 -42 2 -94 -1 -116 -6z"/>
<path d="M3506 1670 c-63 -16 -153 -70 -197 -117 -22 -24 -55 -74 -72 -111
-29 -61 -32 -76 -32 -163 0 -90 2 -99 37 -171 67 -135 179 -210 339 -226 102
-11 147 -31 198 -88 87 -99 82 -224 -14 -319 -70 -71 -145 -91 -239 -63 -78
23 -166 135 -166 212 0 13 -13 16 -81 16 l-82 0 7 -52 c9 -71 55 -167 107
-222 26 -29 70 -60 117 -84 72 -35 81 -37 172 -37 91 0 100 2 172 37 91 45
147 103 191 196 29 61 32 76 32 163 0 90 -2 99 -37 171 -67 135 -179 210 -339
226 -102 11 -147 31 -198 88 -87 99 -82 224 14 319 51 52 102 75 165 75 115 0
240 -116 240 -224 0 -13 13 -16 81 -16 l82 0 -7 53 c-9 74 -66 186 -122 236
-70 65 -158 102 -252 107 -42 2 -94 -1 -116 -6z"/>
<path d="M640 960 l0 -80 80 0 80 0 0 80 0 80 -80 0 -80 0 0 -80z"/>
<path d="M960 960 l0 -80 80 0 80 0 0 80 0 80 -80 0 -80 0 0 -80z"/>
</g>
</svg>
