<?xml version="1.0" encoding="UTF-8"?>
<!DOCTYPE svg PUBLIC "-//W3C//DTD SVG 1.1//EN" "http://www.w3.org/Graphics/SVG/1.1/DTD/svg11.dtd">
<!-- Creator: CorelDRAW 2020 (64 Bit) -->
<svg xmlns="http://www.w3.org/2000/svg" xml:space="preserve" width="26.4582mm" height="23.8173mm" version="1.1" style="shape-rendering:geometricPrecision; text-rendering:geometricPrecision; image-rendering:optimizeQuality; fill-rule:evenodd; clip-rule:evenodd"
viewBox="0 0 372.78 335.57"
 xmlns:xlink="http://www.w3.org/1999/xlink"
 xmlns:xodm="http://www.corel.com/coreldraw/odm/2003">
 <defs>
  <style type="text/css">
   <![CDATA[
    .fil0 {fill:#ED3237}
   ]]>
  </style>
 </defs>
 <g id="Camada_x0020_1">
  <metadata id="CorelCorpID_0Corel-Layer"/>
  <g id="_2305890554576">
   <g id="_1946865722992">
    <path class="fil0" d="M144.7 335.57c-15.2,-5.31 -29.04,-10.3 -38.85,-13.93 -18.64,-26.46 -22.68,-26.56 -45.43,-62.53 4.75,23.7 6.11,35.5 10.17,54.03 -18.86,-18.91 -23.44,-28.86 -42.12,-50.83 -2.61,-13.75 -5.23,-27.5 -7.84,-41.25 5.81,-26.05 11.62,-52.09 17.43,-78.14 -6.39,10.26 -12.78,20.53 -19.17,30.79 -2.32,13.85 -4.65,27.69 -6.97,41.54 -0.58,2.71 -1.16,5.42 -1.74,8.13 -3.39,-8.13 -6.78,-16.27 -10.17,-24.4 2.61,-22.95 5.23,-45.89 7.84,-68.84 12.78,-12.3 25.56,-24.59 38.34,-36.89 -11.1,6.9 -22.19,13.8 -33.29,20.7 1.9,-8.64 3.79,-17.29 5.69,-25.93 11.52,-8.04 23.04,-16.07 34.57,-24.11 12.2,-5.81 24.4,-11.62 36.6,-17.43 6.68,-1.16 13.36,-2.32 20.04,-3.49 -10.26,1.45 -20.53,2.9 -30.79,4.36 3.2,-3.78 6.39,-7.55 9.59,-11.33 8.33,-1.26 16.65,-2.52 24.98,-3.78 9.1,-0.48 18.2,-0.97 27.31,-1.45 11.81,3.49 23.62,6.97 35.44,10.46 12.39,-13.75 24.79,-27.5 37.18,-41.25 2.08,13.85 4.16,27.69 6.25,41.54 10.99,-12.05 21.98,-24.11 32.97,-36.16 1.5,28.52 3,57.03 4.5,85.55 10.26,9.05 20.53,18.11 30.79,27.16 1.94,10.21 3.87,20.43 5.81,30.65 7.31,6.29 14.62,12.59 26.31,22.08 11.69,9.49 27.76,22.17 37.27,30.01 9.5,7.84 12.44,10.84 15.38,13.85 -7.12,10.94 -9.17,8.28 -39.76,38.87 -0.8,0.04 -73.88,-18.45 -77.79,-19.59 -23.57,6.31 -43.74,20.87 -83.2,43.65 0,-20.65 -3.96,-40.76 -3.96,-73.09 -4.73,4.15 -6.12,8.88 -10.86,13.04 -1.66,11.58 -8.38,40.61 -10.04,52.2 -4.33,-27.12 -3.69,-31.17 -7.53,-62.74 3.05,-5.96 19.1,-29.28 22.15,-35.24 -6.56,8.47 -24.16,22.46 -30.72,30.93 -1.45,10.09 -4.65,36.45 -6.1,46.55 -4.27,-10.59 -14.82,-46.16 -14.31,-55.41 4.12,-8.93 21.01,-50.69 25.13,-59.62 -2.71,2.78 -42.53,59.58 -42.85,61.22 0.35,8.64 43.21,115.52 51.75,140.15l0 0 0 -0z"/>
   </g>
  </g>
 </g>
</svg>
