<?xml version="1.0" encoding="UTF-8"?>
<!DOCTYPE svg PUBLIC "-//W3C//DTD SVG 1.1//EN" "http://www.w3.org/Graphics/SVG/1.1/DTD/svg11.dtd">
<!-- Creator: CorelDRAW 2020 (64 Bit) -->
<svg xmlns="http://www.w3.org/2000/svg" xml:space="preserve" width="155.832mm" height="14.6097mm" version="1.1" style="shape-rendering:geometricPrecision; text-rendering:geometricPrecision; image-rendering:optimizeQuality; fill-rule:evenodd; clip-rule:evenodd"
viewBox="0 0 15577.3 1460.42"
 xmlns:xlink="http://www.w3.org/1999/xlink"
 xmlns:xodm="http://www.corel.com/coreldraw/odm/2003">
 <defs>
  <style type="text/css">
   <![CDATA[
    .fil1 {fill:#F25D07}
    .fil0 {fill:#FEFEFE}
   ]]>
  </style>
 </defs>
 <g id="Camada_x0020_1">
  <metadata id="CorelCorpID_0Corel-Layer"/>
  <g id="_2071654070176">
   <path class="fil0" d="M0.01 1303.7c0,52.24 0,104.47 0,156.71 24.54,0 49.07,0 73.61,0 417.35,-403.56 834.7,-807.13 1252.05,-1210.68 -3.41,403.56 -6.83,807.13 -10.24,1210.68l159.5 0 0 -1460.4 -114.48 0c-453.49,434.57 -906.97,869.12 -1360.46,1303.69l0.01 0z"/>
   <path class="fil0" d="M1504 0.01l0 1460.4 0.24 0 159.46 0c0,-403.56 0,-807.13 0,-1210.68 398.55,400.5 797.12,800.99 1195.67,1201.49 46.45,0 92.93,0 139.38,0 0,-483.74 0,-967.47 0,-1451.2 -55.23,0 -110.47,0 -165.7,0 3.29,398.37 6.57,796.74 9.87,1195.11 -407.25,-398.37 -814.5,-796.74 -1221.75,-1195.11l-107.22 0 -1.89 0 -3.64 0 -3.63 0 -0.79 0z"/>
   <path class="fil0" d="M3116.97 0.01c-33.2,0 -66.41,0 -99.6,0 0,35.94 0,71.88 0,107.82 206.22,204.12 412.45,408.26 618.68,612.38 -204.29,199.21 -408.59,398.42 -612.88,597.63 0,41.6 0,83.2 0,124.8 31.69,0 63.37,0 95.05,0 205.25,-202.22 410.5,-404.44 615.75,-606.66 0,-79.9 0,-159.79 0,-239.69 -205.66,-198.76 -411.34,-397.52 -617,-596.28z"/>
   <path class="fil0" d="M3765.48 0.01c0,486.8 0,973.6 0,1460.4 62.27,0 124.54,0 186.81,0 0,-186.67 0,-373.34 0,-560.01 174.25,186.67 348.51,373.34 522.76,560.01 47.39,0 94.77,0 142.17,0 -0.55,-46.44 -1.11,-92.88 -1.66,-139.32 -187.34,-177.97 -374.69,-355.96 -562.03,-533.93 188.45,0 376.89,0 565.34,0 0,-262.38 0,-524.77 0,-787.15 -284.46,0 -568.93,0 -853.39,0zm179.16 140.7c0,164.42 0,299.92 0,464.34 166.19,0 332.37,0 498.55,0 0,-163.54 0,-298.16 0,-461.7 -166.19,-0.88 -332.37,-1.76 -498.55,-2.64z"/>
   <rect class="fil0" x="4648.48" y="0" width="1441.42" height="126.12"/>
   <rect class="fil0" x="4648.48" y="657.15" width="1441.42" height="126.12"/>
   <rect class="fil0" x="4648.48" y="1334.28" width="1441.42" height="126.12"/>
   <path class="fil0" d="M7625.36 0.01c0,47.56 0,95.12 0,142.69 210.07,0 420.15,0 630.22,0 0,154.08 0,308.15 0,462.24 -209.17,0 -418.35,0 -627.53,0 0,59.45 0,118.9 0,178.34 222.95,225.72 445.88,451.42 668.83,677.14 40.49,0 80.98,0 121.47,0 0,-45.37 0,-90.74 0,-136.11 -180.08,-180.24 -360.16,-360.48 -540.25,-540.73 180.08,-0.1 360.16,-0.2 540.25,-0.3 0,-261.09 0,-522.17 0,-783.27 -264.33,0 -528.66,0 -792.98,0l-0.01 0z"/>
   <polygon class="fil0" points="6922.63,783.29 6922.63,1460.42 6763.94,1460.42 6763.94,783.29 6269.52,783.29 6112.14,783.29 6111.97,0.01 6269.35,0.01 6269.52,625.9 7462.18,625.9 7462.18,0.01 7599.71,0.01 7599.71,625.9 7599.71,783.29 7462.18,783.29 "/>
   <rect class="fil0" x="8451.59" y="0.01" width="165.31" height="1460.4"/>
   <rect class="fil0" x="8656.55" y="1334.28" width="1425.57" height="126.12"/>
   <rect class="fil0" x="8656.55" y="0" width="1425.57" height="126.12"/>
   <path class="fil0" d="M10110.18 0.01l182.49 0 0 552.05c195.28,-184.02 382.96,-368.03 578.23,-552.05 32.18,0 71.97,0 104.15,0 0,46.92 0,62.12 0,109.04 -205.86,192.64 -411.72,417 -617.58,609.64 204.09,209.82 413.48,420.31 617.58,630.13 0,37.42 0,74.17 0,111.59 -40.55,0 -86.4,0 -126.95,0 -185.14,-193.03 -370.29,-386.04 -555.43,-579.07l0 579.07 -182.49 0 0 -1460.4z"/>
   <path class="fil0" d="M11097.75 1074.59l505.16 0 0 385.82 -505.16 0 0 -385.82zm114.42 114.42l276.33 0 0 156.99 -276.33 0 0 -156.99z"/>
   <path class="fil1" d="M11914.05 0.01c0,486.8 0,973.6 0,1460.4 45.84,0 91.69,0 137.53,0 203.98,-221.94 407.96,-443.87 611.94,-665.81 0.56,-51.47 1.11,-102.93 1.67,-154.4 -212.03,-213.4 -401.58,-426.79 -613.61,-640.19 -38.36,0 -99.17,0 -137.53,0zm155.38 261.04c0,316.77 0,633.54 0,950.31 146.45,-159.34 292.9,-318.69 439.35,-478.03 0.11,-9.93 0.22,-19.84 0.33,-29.77 -146.56,-147.5 -293.12,-295.01 -439.68,-442.51z"/>
   <rect class="fil1" x="12702.57" y="0" width="1441.42" height="126.12"/>
   <rect class="fil1" x="12702.57" y="657.15" width="1441.42" height="126.12"/>
   <rect class="fil1" x="12702.57" y="1334.28" width="1441.42" height="126.12"/>
   <path class="fil1" d="M14187.29 0.01c0,36.35 0,72.69 0,109.04 206.74,450.45 413.47,900.91 620.22,1351.36 51.57,0 103.15,0 154.72,0 205.02,-450.45 410.04,-900.91 615.07,-1351.36 -0.15,-36.35 -0.29,-72.69 -0.44,-109.04 -46.99,0 -93.97,0 -140.97,0 -180.69,416.72 -361.39,833.46 -542.09,1250.18 -188.34,-416.72 -376.67,-833.46 -565.01,-1250.18 -47.17,0 -94.33,0 -141.51,0z"/>
  </g>
 </g>
</svg>
