<?xml version="1.0" encoding="UTF-8"?>
<!DOCTYPE svg PUBLIC "-//W3C//DTD SVG 1.1//EN" "http://www.w3.org/Graphics/SVG/1.1/DTD/svg11.dtd">
<!-- Creator: CorelDRAW 2020 (64 Bit) -->
<svg xmlns="http://www.w3.org/2000/svg" xml:space="preserve" width="100" height="100" version="1.1" style="shape-rendering:geometricPrecision; text-rendering:geometricPrecision; image-rendering:optimizeQuality; fill-rule:evenodd; clip-rule:evenodd"
viewBox="0 0 6785.13 6107.87"
 xmlns:xlink="http://www.w3.org/1999/xlink"
 xmlns:xodm="http://www.corel.com/coreldraw/odm/2003">
 <defs>
  <style type="text/css">
   <![CDATA[
    .fil0 {fill:#F25D07}
   ]]>
  </style>
 </defs>
 <g id="Camada_x0020_1">
  <metadata id="CorelCorpID_0Corel-Layer"/>
  <g id="_1946865722992">
   <path class="fil0" d="M2633.75 6107.87c-276.58,-96.59 -528.54,-187.42 -707.08,-253.62 -339.24,-481.56 -412.77,-483.45 -826.96,-1138.15 86.38,431.41 111.22,646.15 185.05,983.4 -343.2,-344.23 -426.58,-525.36 -766.63,-925.24 -47.58,-250.25 -95.17,-500.52 -142.75,-750.77 105.74,-474.08 211.49,-948.15 317.23,-1422.23 -116.32,186.81 -232.63,373.63 -348.95,560.44 -42.29,252.02 -84.6,504.04 -126.89,756.06 -10.57,49.35 -21.15,98.69 -31.72,148.04 -61.69,-148.04 -123.36,-296.07 -185.05,-444.12 47.58,-417.68 95.17,-835.37 142.75,-1253.05 232.63,-223.82 465.27,-447.64 697.9,-671.46 -201.97,125.61 -403.92,251.21 -605.89,376.82 34.54,-157.33 69.07,-314.66 103.61,-471.99 209.72,-146.27 419.45,-292.56 629.17,-438.83 222.06,-105.74 444.12,-211.49 666.18,-317.23 121.61,-21.15 243.21,-42.29 364.82,-63.45 -186.81,26.44 -373.63,52.86 -560.44,79.3 58.16,-68.73 116.32,-137.46 174.48,-206.19 151.56,-22.91 303.13,-45.82 454.69,-68.73 165.67,-8.81 331.32,-17.62 496.99,-26.44 215,63.45 430.02,126.89 645.02,190.34 225.59,-250.25 451.17,-500.52 676.76,-750.77 37.89,252.02 75.78,504.05 113.67,756.07 200.03,-219.41 400.06,-438.83 600.09,-658.24 27.32,519.02 54.63,1038.03 81.95,1557.06 186.82,164.78 373.63,329.57 560.45,494.34 35.25,185.93 70.49,371.87 105.74,557.8 133.06,114.55 266.12,229.11 478.93,401.82 212.81,172.71 505.36,403.58 678.36,546.34 173.01,142.75 226.45,197.39 279.91,252.02 -129.53,199.11 -166.9,150.7 -723.62,707.42 -14.55,0.74 -1344.71,-335.73 -1415.85,-356.51 -429.01,114.95 -796.18,379.81 -1514.39,794.47 0,-375.92 -72.03,-741.89 -72.03,-1330.38 -86.14,75.56 -111.47,161.69 -197.61,237.26 -30.24,210.82 -152.57,739.21 -182.81,950.03 -78.77,-493.71 -67.09,-567.38 -137.06,-1141.98 55.51,-108.39 347.63,-533.04 403.14,-641.43 -119.41,154.21 -439.71,408.89 -559.12,563.09 -26.44,183.73 -84.6,663.53 -111.03,847.25 -77.8,-192.75 -269.77,-840.11 -260.4,-1008.54 74.91,-162.58 382.44,-922.6 457.35,-1085.18 -49.35,50.54 -774.04,1084.39 -779.9,1114.25 6.39,157.31 786.47,2102.67 941.95,2550.91l0 0.01z"/>
  </g>
 </g>
</svg>
