<?xml version="1.0" encoding="UTF-8"?>
<!DOCTYPE svg PUBLIC "-//W3C//DTD SVG 1.1//EN" "http://www.w3.org/Graphics/SVG/1.1/DTD/svg11.dtd">
<!-- Creator: CorelDRAW 2020 (64 Bit) -->
<svg xmlns="http://www.w3.org/2000/svg" xml:space="preserve" width="155.831mm" height="14.6096mm" version="1.1" style="shape-rendering:geometricPrecision; text-rendering:geometricPrecision; image-rendering:optimizeQuality; fill-rule:evenodd; clip-rule:evenodd"
viewBox="0 0 10444.48 979.2"
 xmlns:xlink="http://www.w3.org/1999/xlink"
 xmlns:xodm="http://www.corel.com/coreldraw/odm/2003">
 <defs>
  <style type="text/css">
   <![CDATA[
    .fil1 {fill:#ED3237}
    .fil0 {fill:#FEFEFE}
   ]]>
  </style>
 </defs>
 <g id="Camada_x0020_1">
  <metadata id="CorelCorpID_0Corel-Layer"/>
  <path class="fil0" d="M0.01 874.13c0,35.03 0,70.05 0,105.07 16.45,0 32.9,0 49.36,0 279.83,-270.59 559.66,-541.17 839.49,-811.76 -2.29,270.59 -4.58,541.17 -6.86,811.76l106.94 0 0 -979.19 -76.76 0c-304.06,291.38 -608.11,582.74 -912.18,874.11l0.01 0z"/>
  <path class="fil0" d="M1008.42 0.01l0 979.19 0.16 0 106.92 0c0,-270.59 0,-541.17 0,-811.76 267.23,268.53 534.46,537.05 801.69,805.59 31.15,0 62.31,0 93.45,0 0,-324.35 0,-648.68 0,-973.02 -37.03,0 -74.07,0 -111.1,0 2.21,267.11 4.4,534.21 6.62,801.31 -273.06,-267.11 -546.12,-534.21 -819.17,-801.31l-71.89 0 -1.27 0 -2.44 0 -2.43 0 -0.53 0z"/>
  <path class="fil0" d="M2089.91 0.01c-22.26,0 -44.53,0 -66.78,0 0,24.1 0,48.2 0,72.29 138.27,136.86 276.55,273.74 414.82,410.6 -136.98,133.57 -273.96,267.13 -410.93,400.71 0,27.9 0,55.78 0,83.68 21.25,0 42.49,0 63.73,0 137.62,-135.59 275.24,-271.17 412.85,-406.77 0,-53.57 0,-107.13 0,-160.7 -137.89,-133.27 -275.79,-266.54 -413.69,-399.8l0 -0.01z"/>
  <path class="fil0" d="M2524.73 0.01c0,326.4 0,652.79 0,979.19 41.75,0 83.51,0 125.26,0 0,-125.16 0,-250.32 0,-375.49 116.84,125.16 233.67,250.32 350.51,375.49 31.78,0 63.55,0 95.32,0 -0.37,-31.14 -0.74,-62.27 -1.11,-93.41 -125.61,-119.33 -251.23,-238.67 -376.84,-358 126.35,0 252.7,0 379.06,0 0,-175.92 0,-351.85 0,-527.78 -190.73,0 -381.46,0 -572.2,0zm120.12 94.34c0,110.24 0,201.09 0,311.34 111.43,0 222.86,0 334.28,0 0,-109.65 0,-199.91 0,-309.57 -111.43,-0.59 -222.86,-1.18 -334.28,-1.77z"/>
  <rect class="fil0" x="3116.78" y="0" width="966.46" height="84.56"/>
  <rect class="fil0" x="3116.78" y="440.62" width="966.46" height="84.56"/>
  <rect class="fil0" x="3116.78" y="894.63" width="966.46" height="84.56"/>
  <path class="fil0" d="M5112.76 0.01c0,31.89 0,63.78 0,95.67 140.85,0 281.7,0 422.56,0 0,103.31 0,206.62 0,309.93 -140.25,0 -280.5,0 -420.75,0 0,39.86 0,79.72 0,119.57 149.49,151.35 298.96,302.68 448.44,454.02 27.15,0 54.3,0 81.45,0 0,-30.42 0,-60.84 0,-91.26 -120.74,-120.85 -241.49,-241.7 -362.23,-362.56 120.74,-0.07 241.48,-0.13 362.23,-0.2 0,-175.05 0,-350.11 0,-525.17 -177.23,0 -354.46,0 -531.69,0l-0.01 0 0 -0.01z"/>
  <polygon class="fil0" points="4641.58,525.19 4641.58,979.2 4535.17,979.2 4535.17,525.19 4203.68,525.19 4098.15,525.19 4098.04,0.01 4203.56,0.01 4203.68,419.67 5003.35,419.67 5003.35,0.01 5095.56,0.01 5095.56,419.67 5095.56,525.19 5003.35,525.19 "/>
  <rect class="fil0" x="5666.74" y="0.01" width="110.84" height="979.19"/>
  <rect class="fil0" x="5804.16" y="894.63" width="955.84" height="84.56"/>
  <rect class="fil0" x="5804.16" y="0" width="955.84" height="84.56"/>
  <path class="fil0" d="M6778.81 0.01l122.36 0 0 370.15c130.93,-123.39 256.77,-246.76 387.7,-370.15 21.58,0 48.25,0 69.83,0 0,31.46 0,41.65 0,73.11 -138.02,129.16 -276.05,279.6 -414.08,408.76 136.84,140.68 277.24,281.81 414.08,422.5 0,25.09 0,49.73 0,74.82 -27.19,0 -57.92,0 -85.11,0 -124.14,-129.42 -248.28,-258.84 -372.42,-388.27l0 388.27 -122.36 0 0 -979.19z"/>
  <path class="fil0" d="M7440.97 720.51l338.71 0 0 258.69 -338.71 0 0 -258.69zm76.72 76.72l185.28 0 0 105.26 -185.28 0 0 -105.26z"/>
  <path class="fil1" d="M7988.3 0.01c0,326.4 0,652.79 0,979.19 30.74,0 61.47,0 92.21,0 136.77,-148.81 273.53,-297.62 410.3,-446.42 0.38,-34.51 0.74,-69.01 1.12,-103.52 -142.17,-143.08 -269.25,-286.16 -411.42,-429.25 -25.72,0 -66.5,0 -92.21,0zm104.18 175.03c0,212.39 0,424.78 0,637.18 98.2,-106.84 196.39,-213.68 294.58,-320.52 0.07,-6.65 0.15,-13.3 0.22,-19.95 -98.26,-98.9 -196.53,-197.8 -294.8,-296.7z"/>
  <rect class="fil1" x="8516.99" y="0" width="966.46" height="84.56"/>
  <rect class="fil1" x="8516.99" y="440.62" width="966.46" height="84.56"/>
  <rect class="fil1" x="8516.99" y="894.63" width="966.46" height="84.56"/>
  <path class="fil1" d="M9512.49 0.01c0,24.37 0,48.74 0,73.11 138.62,302.03 277.23,604.05 415.85,906.08 34.58,0 69.16,0 103.74,0 137.47,-302.03 274.92,-604.05 412.4,-906.08 -0.1,-24.37 -0.19,-48.74 -0.29,-73.11 -31.51,0 -63.01,0 -94.52,0 -121.15,279.41 -242.31,558.82 -363.46,838.24 -126.28,-279.41 -252.56,-558.82 -378.84,-838.24 -31.63,0 -63.25,0 -94.88,0z"/>
 </g>
</svg>
