<?xml version="1.0" encoding="UTF-8"?>
<!DOCTYPE svg PUBLIC "-//W3C//DTD SVG 1.1//EN" "http://www.w3.org/Graphics/SVG/1.1/DTD/svg11.dtd">
<!-- Creator: CorelDRAW 2020 (64 Bit) -->
<svg xmlns="http://www.w3.org/2000/svg" xml:space="preserve" width="213.36mm" height="167.64mm" version="1.1" style="shape-rendering:geometricPrecision; text-rendering:geometricPrecision; image-rendering:optimizeQuality; fill-rule:evenodd; clip-rule:evenodd"
viewBox="0 0 12418.9 9757.71"
 xmlns:xlink="http://www.w3.org/1999/xlink"
 xmlns:xodm="http://www.corel.com/coreldraw/odm/2003">
 <defs>
  <style type="text/css">
   <![CDATA[
    .fil0 {fill:#373435}
    .fil2 {fill:#ED3237}
    .fil1 {fill:#FEFEFE}
   ]]>
  </style>
 </defs>
 <g id="Camada_x0020_1">
  <metadata id="CorelCorpID_0Corel-Layer"/>
  <rect class="fil0" width="12418.9" height="9757.71"/>
  <path class="fil1" d="M1653.2 6887.97c0,30.42 0,60.83 0,91.25 14.29,0 28.57,0 42.86,0 243.02,-234.98 486.03,-469.98 729.05,-704.96 -1.98,234.98 -3.98,469.98 -5.96,704.96l92.87 0 0 -850.37 -66.66 0c-264.06,253.04 -528.11,506.07 -792.17,759.12z"/>
  <path class="fil1" d="M2528.95 6128.85l0 850.37 0.14 0 92.85 0c0,-234.98 0,-469.98 0,-704.96 232.07,233.2 464.15,466.4 696.22,699.6 27.05,0 54.11,0 81.16,0 0,-281.67 0,-563.34 0,-845.01 -32.16,0 -64.32,0 -96.48,0 1.91,231.96 3.82,463.93 5.74,695.89 -237.13,-231.96 -474.27,-463.93 -711.4,-695.89l-62.43 0 -1.1 0 -2.12 0 -2.11 0 -0.46 0z"/>
  <path class="fil1" d="M3468.15 6128.85c-19.33,0 -38.67,0 -58,0 0,20.93 0,41.86 0,62.78 120.08,118.86 240.17,237.72 360.24,356.58 -118.96,115.99 -237.91,231.99 -356.87,347.99 0,24.23 0,48.45 0,72.67 18.45,0 36.9,0 55.35,0 119.52,-117.75 239.02,-235.5 358.54,-353.25 0,-46.52 0,-93.04 0,-139.57 -119.75,-115.73 -239.51,-231.47 -359.27,-347.2z"/>
  <path class="fil1" d="M3845.76 6128.85c0,283.45 0,566.91 0,850.37 36.26,0 72.52,0 108.78,0 0,-108.69 0,-217.39 0,-326.08 101.47,108.69 202.93,217.39 304.4,326.08 27.6,0 55.19,0 82.78,0 -0.32,-27.04 -0.65,-54.08 -0.97,-81.12 -109.08,-103.63 -218.17,-207.27 -327.26,-310.9 109.73,0 219.46,0 329.19,0 0,-152.78 0,-305.57 0,-458.35 -165.64,0 -331.28,0 -496.91,0zm104.33 81.92c0,95.74 0,174.64 0,270.37 96.77,0 193.53,0 290.3,0 0,-95.23 0,-173.61 0,-268.84 -96.77,-0.51 -193.53,-1.02 -290.3,-1.54z"/>
  <g id="_1946862194400">
   <rect class="fil1" x="4359.93" y="6128.85" width="839.31" height="73.44"/>
   <rect class="fil1" x="4359.93" y="6511.49" width="839.31" height="73.44"/>
   <rect class="fil1" x="4359.93" y="6905.77" width="839.31" height="73.44"/>
  </g>
  <path class="fil1" d="M6093.3 6128.85c0,27.69 0,55.39 0,83.08 122.32,0 244.65,0 366.97,0 0,89.72 0,179.43 0,269.15 -121.8,0 -243.6,0 -365.4,0 0,34.62 0,69.23 0,103.85 129.82,131.43 259.63,262.85 389.45,394.28 23.58,0 47.15,0 70.73,0 0,-26.42 0,-52.83 0,-79.25 -104.86,-104.95 -209.72,-209.9 -314.58,-314.86 104.86,-0.06 209.72,-0.12 314.58,-0.17 0,-152.03 0,-304.05 0,-456.08 -153.91,0 -307.83,0 -461.74,0z"/>
  <polygon class="fil1" points="5684.12,6584.93 5684.12,6979.22 5591.72,6979.22 5591.72,6584.93 5303.82,6584.93 5212.19,6584.93 5212.09,6128.85 5303.72,6128.85 5303.82,6493.3 5998.29,6493.3 5998.29,6128.85 6078.37,6128.85 6078.37,6493.3 6078.37,6584.93 5998.29,6584.93 "/>
  <rect class="fil1" x="6574.4" y="6128.85" width="96.26" height="850.37"/>
  <rect class="fil1" x="6693.75" y="6905.77" width="830.09" height="73.44"/>
  <rect class="fil1" x="6693.75" y="6128.85" width="830.09" height="73.44"/>
  <path class="fil1" d="M7540.17 6128.85l106.26 0 0 321.45c113.71,-107.15 222.99,-214.3 336.69,-321.45 18.74,0 41.91,0 60.65,0 0,27.32 0,36.17 0,63.49 -119.87,112.17 -239.73,242.81 -359.6,354.98 118.84,122.18 240.76,244.74 359.6,366.92 0,21.79 0,43.19 0,64.98 -23.61,0 -50.31,0 -73.92,0 -107.8,-112.4 -215.61,-224.79 -323.42,-337.18l0 337.18 -106.26 0 0 -850.37z"/>
  <path class="fil1" d="M8115.22 6754.56l294.15 0 0 224.66 -294.15 0 0 -224.66zm66.62 66.62l160.9 0 0 91.41 -160.9 0 0 -91.41z"/>
  <path class="fil2" d="M8590.54 6128.85c0,283.45 0,566.91 0,850.37 26.69,0 53.39,0 80.08,0 118.78,-129.23 237.55,-258.46 356.32,-387.69 0.33,-29.97 0.65,-59.94 0.97,-89.91 -123.46,-124.26 -233.83,-248.51 -357.29,-372.77 -22.33,0 -57.75,0 -80.08,0zm90.48 152c0,184.45 0,368.9 0,553.35 85.28,-92.78 170.55,-185.57 255.83,-278.35 0.06,-5.78 0.13,-11.55 0.19,-17.33 -85.34,-85.89 -170.68,-171.78 -256.02,-257.67z"/>
  <g id="_1946862198144">
   <rect class="fil2" x="9049.67" y="6128.85" width="839.31" height="73.44"/>
   <rect class="fil2" x="9049.67" y="6511.49" width="839.31" height="73.44"/>
   <rect class="fil2" x="9049.67" y="6905.77" width="839.31" height="73.44"/>
  </g>
  <path class="fil2" d="M9914.21 6128.85c0,21.16 0,42.33 0,63.49 120.38,262.29 240.76,524.58 361.14,786.87 30.03,0 60.06,0 90.09,0 119.38,-262.29 238.76,-524.58 358.14,-786.87 -0.09,-21.16 -0.17,-42.33 -0.26,-63.49 -27.36,0 -54.72,0 -82.08,0 -105.21,242.65 -210.43,485.31 -315.65,727.96 -109.67,-242.65 -219.33,-485.31 -328.99,-727.96 -27.47,0 -54.93,0 -82.4,0z"/>
  <g id="_1946862197040">
   <path class="fil2" d="M5746.34 5422.83c-161.13,-56.27 -307.91,-109.18 -411.92,-147.75 -197.63,-280.54 -240.47,-281.64 -481.76,-663.05 50.32,251.32 64.8,376.43 107.8,572.9 -199.94,-200.54 -248.51,-306.05 -446.61,-539.01 -27.72,-145.79 -55.44,-291.58 -83.16,-437.37 61.6,-276.18 123.21,-552.36 184.81,-828.54 -67.76,108.83 -135.52,217.66 -203.29,326.49 -24.64,146.82 -49.28,293.63 -73.92,440.45 -6.16,28.75 -12.32,57.5 -18.48,86.24 -35.94,-86.24 -71.87,-172.48 -107.8,-258.73 27.72,-243.33 55.44,-486.66 83.16,-729.98 135.52,-130.39 271.05,-260.78 406.57,-391.17 -117.66,73.18 -235.31,146.35 -352.97,219.53 20.12,-91.66 40.24,-183.31 60.36,-274.97 122.18,-85.21 244.36,-170.43 366.53,-255.65 129.36,-61.6 258.73,-123.21 388.09,-184.81 70.84,-12.32 141.69,-24.64 212.53,-36.96 -108.83,15.4 -217.66,30.8 -326.49,46.2 33.88,-40.04 67.76,-80.08 101.65,-120.12 88.29,-13.35 176.59,-26.69 264.89,-40.04 96.51,-5.13 193.02,-10.27 289.53,-15.4 125.25,36.96 250.51,73.92 375.77,110.88 131.42,-145.79 262.84,-291.58 394.25,-437.37 22.07,146.82 44.15,293.64 66.22,440.46 116.53,-127.82 233.06,-255.65 349.59,-383.47 15.91,302.36 31.83,604.72 47.74,907.09 108.83,95.99 217.66,191.99 326.5,287.99 20.54,108.32 41.06,216.64 61.6,324.95 77.51,66.73 155.03,133.47 279.01,234.09 123.97,100.62 294.41,235.11 395.19,318.28 100.79,83.16 131.92,114.99 163.06,146.82 -75.46,115.99 -97.23,87.79 -421.55,412.12 -8.47,0.43 -783.38,-195.58 -824.82,-207.69 -249.93,66.97 -463.83,221.27 -882.23,462.83 0,-219 -41.96,-432.2 -41.96,-775.03 -50.18,44.02 -64.94,94.2 -115.12,138.22 -17.62,122.82 -88.88,430.64 -106.5,553.45 -45.89,-287.62 -39.09,-330.54 -79.85,-665.28 32.34,-63.14 202.52,-310.53 234.86,-373.67 -69.56,89.84 -256.16,238.2 -325.72,328.04 -15.4,107.04 -49.28,386.55 -64.68,493.58 -45.33,-112.29 -157.16,-489.42 -151.7,-587.54 43.64,-94.71 222.8,-537.48 266.43,-632.19 -28.75,29.44 -450.93,631.73 -454.34,649.12 3.73,91.65 458.17,1224.94 548.75,1486.07z"/>
  </g>
 </g>
</svg>
