<?xml version="1.0" standalone="no"?>
<!DOCTYPE svg PUBLIC "-//W3C//DTD SVG 20010904//EN"
 "http://www.w3.org/TR/2001/REC-SVG-20010904/DTD/svg10.dtd">
<svg version="1.0" xmlns="http://www.w3.org/2000/svg"
 width="512.000000pt" height="512.000000pt" viewBox="0 0 512.000000 512.000000"
 preserveAspectRatio="xMidYMid meet">

<g transform="translate(0.000000,512.000000) scale(0.100000,-0.100000)"
fill="#ed3238" stroke="none">
<path d="M2005 5114 c-75 -8 -238 -46 -309 -71 -138 -50 -271 -126 -386 -222
-70 -58 -79 -70 -80 -102 0 -63 70 -94 122 -53 190 149 313 217 467 258 411
110 824 8 1107 -272 45 -44 94 -87 111 -95 46 -24 119 -111 151 -180 51 -110
62 -195 62 -503 l0 -276 -27 7 c-16 5 -46 11 -68 14 l-40 6 -5 147 c-5 138 -6
148 -29 172 -14 15 -43 31 -65 37 -125 33 -168 61 -237 156 -46 61 -82 83
-139 83 -49 0 -64 -7 -156 -76 -240 -179 -533 -256 -859 -225 -146 14 -194 10
-271 -24 -93 -41 -164 -121 -200 -227 -14 -44 -17 -46 -62 -51 -26 -3 -58 -9
-71 -13 l-24 -7 6 204 c7 265 34 385 127 563 42 83 37 126 -17 147 -64 24
-111 -37 -184 -233 -62 -168 -72 -237 -76 -533 -3 -203 -8 -285 -19 -329 -37
-140 40 -282 182 -336 30 -11 70 -20 89 -20 30 0 35 -4 40 -27 52 -259 146
-439 305 -587 35 -32 94 -79 132 -104 l68 -45 0 -87 c0 -59 -4 -91 -13 -98 -7
-6 -195 -75 -417 -152 -223 -78 -427 -154 -455 -168 -27 -15 -77 -54 -111 -87
-105 -104 -109 -115 -241 -772 -82 -414 -115 -598 -115 -649 0 -121 54 -210
156 -256 l51 -23 953 -3 953 -2 24 24 c32 32 32 70 0 101 -23 24 -28 25 -172
25 -127 0 -152 3 -179 19 -37 23 -62 76 -47 100 9 15 121 16 1316 19 1293 2
1306 2 1317 -18 8 -14 7 -29 -4 -54 -29 -70 28 -66 -1016 -66 l-941 0 -24 -25
c-32 -31 -32 -69 0 -100 l24 -25 949 0 c1042 0 998 -2 1074 60 76 63 114 202
75 275 -31 61 -103 105 -172 105 l-35 0 0 404 0 405 -26 20 c-15 12 -33 21
-40 21 -29 0 -64 -25 -74 -53 -6 -19 -10 -168 -10 -401 0 -276 -3 -375 -12
-384 -15 -15 -2144 -17 -2168 -2 -13 8 -15 99 -18 705 -2 474 1 702 8 715 11
20 26 20 1088 20 825 0 1081 -3 1090 -12 8 -8 12 -58 12 -159 0 -81 5 -160 10
-175 22 -57 80 -71 119 -30 22 23 22 29 19 213 -3 188 -3 190 -31 231 -15 23
-45 51 -67 62 -38 20 -56 20 -853 20 l-813 0 -88 30 c-49 16 -95 35 -102 41
-10 8 -14 38 -14 109 l0 97 58 38 c75 50 183 155 237 231 82 115 151 276 170
394 11 77 13 80 50 80 51 0 136 35 184 76 76 66 116 180 90 259 -9 28 -15 157
-19 440 -8 452 -10 468 -85 621 -46 93 -122 181 -197 229 -18 12 -67 54 -108
95 -216 210 -500 325 -825 334 -77 2 -158 2 -180 0z m681 -1103 c48 -68 141
-134 220 -157 l54 -15 0 -385 c0 -313 -3 -399 -16 -462 -53 -255 -229 -477
-466 -586 -234 -109 -517 -99 -753 26 -192 101 -324 257 -397 468 l-33 95 -3
304 c-4 346 -1 365 69 425 63 53 105 61 262 45 352 -33 701 61 954 257 31 24
59 44 62 43 3 0 25 -26 47 -58z m-1546 -672 l0 -132 -40 6 c-85 11 -144 90
-120 161 17 52 77 96 133 96 l27 0 0 -131z m2076 106 c33 -21 64 -73 64 -106
0 -57 -79 -129 -142 -129 l-28 0 0 131 0 132 40 -6 c23 -3 52 -13 66 -22z
m-736 -1304 l0 -99 -129 -4 c-127 -3 -130 -4 -167 -34 -51 -41 -75 -92 -82
-170 l-5 -65 -46 7 c-126 17 -184 42 -225 98 -19 25 -21 44 -24 193 -3 155 -2
164 15 159 150 -46 343 -59 484 -32 48 9 104 23 125 30 22 8 42 15 47 15 4 1
7 -44 7 -98z m-822 -248 c14 -70 65 -148 120 -187 50 -34 144 -64 241 -76 41
-6 76 -11 77 -13 2 -2 5 -267 6 -589 l3 -586 -45 -4 c-105 -10 -173 -77 -174
-171 -1 -29 3 -67 7 -84 l9 -33 -386 0 -386 0 0 364 c0 352 -1 364 -21 390
-28 36 -80 36 -108 0 -16 -20 -21 -41 -21 -85 l0 -59 -224 0 -223 0 72 358
c79 393 92 432 170 499 55 48 76 57 440 183 176 61 343 119 370 130 28 10 52
19 55 19 4 1 11 -25 18 -56z m-678 -1513 l0 -230 -207 0 c-115 0 -224 5 -244
10 -87 24 -98 80 -57 293 l30 157 239 0 239 0 0 -230z"/>
<path d="M3242 1384 c-86 -43 -132 -121 -132 -221 1 -265 365 -335 470 -91 26
60 24 151 -3 203 -63 122 -213 170 -335 109z m179 -153 c21 -22 29 -39 29 -66
0 -51 -44 -95 -95 -95 -83 0 -127 105 -69 164 38 38 95 36 135 -3z"/>
</g>
</svg>
