<?xml version="1.0" standalone="no"?>
<!DOCTYPE svg PUBLIC "-//W3C//DTD SVG 20010904//EN"
 "http://www.w3.org/TR/2001/REC-SVG-20010904/DTD/svg10.dtd">
<svg version="1.0" xmlns="http://www.w3.org/2000/svg"
 width="512.000000pt" height="512.000000pt" viewBox="0 0 512.000000 512.000000"
 preserveAspectRatio="xMidYMid meet">

<g transform="translate(0.000000,512.000000) scale(0.100000,-0.100000)"
fill="#F25D07" stroke="none">
<path d="M2462 5105 c-102 -29 -173 -79 -228 -162 -64 -97 -83 -223 -50 -337
19 -65 88 -161 142 -198 83 -57 132 -73 234 -73 77 0 104 5 145 23 79 36 125
73 172 136 152 206 63 507 -176 597 -73 27 -171 33 -239 14z m201 -160 c168
-80 187 -316 34 -421 -121 -83 -283 -42 -350 88 -70 136 -8 291 138 346 42 16
133 9 178 -13z"/>
<path d="M1780 4659 c-225 -84 -478 -231 -658 -382 -85 -72 -223 -211 -295
-298 -78 -93 -212 -302 -271 -421 -64 -130 -136 -319 -136 -358 0 -38 34 -70
74 -70 45 0 59 19 96 125 119 344 362 690 650 925 163 133 428 282 625 350 49
17 98 38 107 47 25 23 23 77 -4 103 -31 28 -67 24 -188 -21z"/>
<path d="M3152 4680 c-27 -26 -29 -80 -4 -103 9 -9 58 -30 107 -47 197 -68
462 -217 625 -350 288 -235 531 -581 650 -925 37 -106 51 -125 96 -125 40 0
74 32 74 70 0 39 -72 228 -136 358 -59 119 -193 328 -271 421 -253 304 -595
548 -957 681 -123 45 -153 49 -184 20z"/>
<path d="M2385 3994 c-293 -45 -461 -354 -336 -618 20 -40 33 -90 40 -145 13
-98 44 -173 107 -253 l44 -56 0 -99 c0 -90 -2 -101 -22 -121 -13 -11 -98 -50
-189 -85 -91 -36 -188 -76 -215 -90 -108 -55 -184 -165 -204 -293 -7 -42 -10
-202 -8 -406 3 -332 3 -338 25 -359 26 -27 77 -29 101 -5 15 15 18 56 22 399
5 368 6 383 27 423 33 62 91 108 179 141 43 17 102 40 130 51 l51 20 41 -57
c188 -258 588 -256 767 4 l37 54 52 -21 c28 -11 87 -34 130 -51 88 -33 146
-79 179 -141 21 -40 22 -55 27 -423 4 -343 7 -384 22 -399 24 -24 75 -22 101
5 22 21 22 27 25 359 2 204 -1 364 -8 406 -20 128 -96 238 -204 293 -27 14
-124 54 -215 90 -91 35 -176 74 -188 85 -21 20 -23 31 -23 121 l0 99 44 56
c63 80 94 155 107 253 7 55 20 105 40 145 93 195 25 434 -156 549 -92 58 -132
67 -325 70 -96 2 -188 1 -205 -1z m405 -170 c94 -43 154 -120 169 -215 16 -96
11 -99 -130 -74 -99 17 -209 52 -335 106 -93 40 -111 41 -146 11 -21 -18 -24
-71 -5 -95 6 -9 47 -32 89 -51 140 -63 247 -96 436 -132 18 -4 22 -11 22 -42
0 -157 -65 -276 -185 -340 -44 -24 -61 -27 -145 -27 -84 0 -101 3 -145 27
-133 71 -185 180 -185 392 0 91 -13 126 -47 126 -22 0 -31 41 -23 97 18 114
94 198 210 230 30 8 99 12 210 10 142 -2 171 -5 210 -23z m-230 -1009 c52 0
112 4 133 9 l37 8 0 -66 c0 -78 24 -133 78 -184 l36 -32 -60 -59 c-70 -67
-132 -93 -224 -93 -92 0 -154 26 -224 93 l-60 59 36 32 c54 51 78 106 78 184
l0 66 38 -8 c20 -5 80 -9 132 -9z"/>
<path d="M345 2948 c-75 -10 -109 -23 -168 -62 -113 -75 -171 -185 -171 -326
0 -140 58 -251 170 -325 98 -65 224 -84 338 -51 65 19 161 88 198 142 57 83
72 132 73 234 0 86 -3 101 -32 163 -75 158 -240 249 -408 225z m181 -183 c158
-92 148 -333 -18 -418 -166 -86 -353 27 -353 213 0 194 200 305 371 205z"/>
<path d="M4665 2948 c-125 -16 -240 -103 -298 -225 -29 -62 -32 -77 -32 -163
0 -77 5 -104 23 -145 36 -79 73 -125 136 -172 206 -152 504 -64 598 176 16 42
22 77 22 141 0 141 -58 251 -171 326 -84 55 -173 75 -278 62z m174 -172 c80
-42 126 -121 126 -216 0 -140 -102 -241 -242 -241 -192 0 -308 215 -201 375
66 101 209 138 317 82z"/>
<path d="M1949 2051 l-24 -19 0 -391 c0 -389 0 -391 22 -412 27 -27 75 -29
103 -4 19 18 20 30 20 412 0 380 -1 394 -20 413 -25 25 -71 26 -101 1z"/>
<path d="M3070 2050 c-19 -19 -20 -33 -20 -413 0 -382 1 -394 20 -412 28 -25
76 -23 103 4 22 21 22 23 22 412 l0 391 -24 19 c-30 25 -76 24 -101 -1z"/>
<path d="M440 1968 c-29 -31 -25 -61 20 -184 83 -225 230 -479 383 -662 72
-85 211 -223 298 -295 93 -78 302 -212 421 -271 133 -66 319 -136 359 -136 39
0 69 32 69 73 0 46 -19 60 -125 97 -344 119 -690 362 -925 650 -133 163 -282
428 -350 625 -17 49 -38 98 -47 107 -23 25 -77 23 -103 -4z"/>
<path d="M4577 1972 c-9 -9 -30 -58 -47 -107 -68 -197 -217 -462 -350 -625
-235 -288 -581 -531 -925 -650 -106 -37 -125 -51 -125 -97 0 -41 30 -73 69
-73 40 0 226 70 359 136 119 59 328 193 421 271 304 253 548 595 681 957 45
123 49 153 20 184 -26 27 -80 29 -103 4z"/>
<path d="M2467 780 c-90 -23 -171 -79 -228 -159 -147 -205 -57 -500 180 -593
78 -30 204 -30 282 0 153 60 250 203 250 368 0 89 -23 161 -74 230 -74 101
-173 154 -296 160 -42 2 -93 -1 -114 -6z m174 -154 c58 -21 107 -64 134 -121
61 -124 12 -269 -112 -331 -52 -26 -154 -26 -206 0 -231 115 -153 465 103 465
25 0 61 -6 81 -13z"/>
</g>
</svg>
